<?xml version="1.0" encoding="utf-8" ?>
<svg xmlns="http://www.w3.org/2000/svg" xmlns:xlink="http://www.w3.org/1999/xlink" width="1024" height="1024">
	<path fill="#FEFEFE" d="M0 0L1024 0L1024 1024L0 1024L0 0Z"/>
	<path d="M527.175 51.7093C538.414 51.2468 549.037 52.2133 560.162 53.5805C531.171 57.0595 512.004 60.7372 492.911 84.1486C492.271 84.2018 491.632 84.2736 490.992 84.3216C485.176 84.7581 478.979 89.4816 473.951 92.3997L469.658 100.153C480.118 98.8888 490.683 98.7577 501.17 99.7618C510.46 100.627 519.701 102.597 528.942 103.913C549.727 106.872 573.643 107.299 593.169 98.7867C594.352 96.4302 595.372 94.3432 597.516 92.6866C601.205 89.8364 605.819 88.3212 610.201 86.9034C626.005 81.79 641.353 80.8124 657.734 83.0835C643.879 84.1108 630.755 88.467 620.153 97.6678C617.047 100.363 615.8 103.944 613.268 107.032C611.205 109.545 607.476 109.507 604.492 109.905C603.1 111.562 601.948 113.206 600.887 115.092C585.884 141.764 570.61 192.835 567.983 223.206C566.503 240.304 567.424 259.482 572.188 275.976C574.993 285.691 579.457 294.002 585.22 302.285C600.34 324.016 643.271 366.466 666.254 379.067C665.992 377.855 665.787 376.632 665.64 375.401C664.443 364.831 669.469 354.806 675.713 346.715C675.689 346.078 675.645 345.442 675.582 344.808C675.156 340.315 674.297 332.995 670.605 330.025C669.237 329.729 668.556 329.607 667.291 330.318C661.71 333.455 658.044 345.436 656.145 351.084C654.981 332.864 658.288 327.981 665.096 312.247C666.787 308.339 668.716 299.373 666.935 295.451C666.491 294.475 666.489 294.668 665.603 294.306C664.321 294.512 663.337 294.864 662.168 295.446C653.891 299.571 651.137 307.232 648.272 315.383C649.356 301.44 653.569 290.065 663.506 280.017C666.227 277.266 670.091 274.877 672.249 271.659C674.163 268.805 675.061 264.031 676.079 260.734C664.621 262.931 658.061 266.379 649.838 274.658C654.304 263.907 663.145 255.094 673.673 250.14C679.523 247.388 685.204 246.446 689.163 240.688C690.082 239.351 690.338 238.421 690.063 236.839C689.208 235.938 688.532 235.599 687.325 235.421C677.782 234.011 668.08 239.442 660.799 244.948C663.666 240.884 666.889 237.554 670.914 234.62C680.357 227.737 694.733 223.194 706.417 224.971C708.872 223.311 711.121 221.579 713.353 219.631C701.347 215.103 692.309 214.627 680.23 219.102C682.085 217.398 683.967 215.853 686.186 214.639C700.202 206.967 718.969 209.693 731.604 218.999C735.105 221.578 738.156 224.733 741.271 227.753C751.617 237.784 759.348 244.693 773.412 248.905C767.384 239.907 761.274 230.236 752.934 223.195C728.829 202.844 691.748 212.664 667.375 188.527C657.51 178.758 656.279 167.211 656.26 154.007C657.973 160.794 659.989 167.181 663.885 173.075C678.837 195.696 709.428 193.278 733.156 194.525C741.161 194.946 748.857 195.971 756.712 197.545C756.128 196.399 755.471 195.291 754.747 194.228C745.78 180.919 728.611 173.024 713.306 170.207C708.109 169.251 702.828 169.174 697.641 168.197L696.964 168.064C712.913 165.563 725.962 166.7 740.649 173.865C749.505 178.185 765.406 186.865 771.319 194.649C772.824 196.63 773.603 198.796 774.393 201.12L783.879 203.691C782.658 201.11 781.394 198.449 779.623 196.19C778.316 194.522 776.79 193.163 775.669 191.339C776.502 190.739 777.396 190.673 778.41 190.696C786.682 190.889 793.267 202.641 799.197 207.144C803.107 210.112 807.378 211.969 810.891 215.53C816.402 221.117 820.711 227.905 826.792 232.934C831.496 236.825 839.391 238.577 843.084 243.399C845.353 246.362 844.186 251.275 844.853 254.759C846.101 261.275 850.907 269.712 855.411 274.575C857.968 277.335 862.34 281.35 866.3 281.222C867.041 281.198 868.064 281.133 868.486 280.469C871.089 276.378 864.802 262.285 863.785 257.505L863.632 256.769C869.405 262.312 874.895 271.355 877.955 278.74C882.246 289.096 883.287 299.343 878.956 309.815C876.796 308.632 874.618 307.175 872.383 306.153C871.338 305.674 870.487 305.374 869.379 305.746C869.096 307.406 868.871 309.296 868.169 310.835C867.031 313.328 864.296 315.864 863.924 318.57C864.662 318.85 864.928 318.937 865.488 319.524C865.327 320.024 865.291 320.204 864.995 320.715C857.309 334.026 853.189 327.896 841.503 327.928C837.757 327.939 833.407 329.35 829.73 330.165C828.955 330.919 828.176 331.668 827.394 332.412C826.217 333.549 825.539 334.279 823.897 334.743C821.784 333.361 825.566 323.354 824.252 318.835C821.086 307.949 811.385 300.063 801.915 294.709C792.095 289.157 782.233 287.118 771.718 283.66C766.244 281.86 760.941 278.864 755.221 277.937C752.345 277.471 749.621 277.646 746.827 278.471C738.442 280.948 731.698 287.119 727.6 294.7C711.342 324.78 757.04 359.503 773.775 379.864C783.836 392.106 792.343 405.666 797.283 420.814C804.194 442.004 804.362 465.527 795.577 486.209C792.797 492.754 788.135 498.928 786.227 505.757C780.491 526.285 779.731 576.936 786.286 597.12C789.404 606.722 805.596 613.728 814.703 616.086C819.503 617.329 825.276 617.245 829.647 619.711C835.431 622.973 838.726 629.112 840.282 635.354C841.122 638.722 841.905 642.376 840.017 645.517C838.432 646.489 837.543 646.237 835.713 646.202C835.564 647.976 835.442 649.766 835.169 651.527C834.045 658.78 830.328 663.412 824.584 667.596C825.382 663.688 827.009 659.402 825.566 655.521C822.8 656.641 820.487 665.085 818.61 667.851C815.203 672.869 810.487 675.051 804.757 676.266C805.679 672.069 806.656 667.779 806.564 663.457C806.405 655.94 802.252 646.52 796.719 641.321C795.683 640.347 794.239 639.059 792.744 639.117C791.155 645.353 801.233 652.763 801.934 659.323C802.057 660.465 801.801 660.832 801.213 661.71L800.299 661.653C796.185 657.053 787.241 649.506 784.476 645.034C782.594 641.989 781.359 638.32 779.905 635.046C776.105 626.485 771.504 616.814 764.943 610.028C758.168 603.019 750.735 596.591 743.471 590.1C735.228 582.735 727.01 575.258 718.439 568.273C714.586 565.133 704.778 559.375 702.181 556.52C700.153 554.29 699.134 550.379 697.458 547.751C691.537 549.235 685.691 551.728 679.913 553.727C667.522 558.012 654.562 562.235 641.669 564.622C649.984 578.258 656.336 589.736 653.882 606.128C660.788 606.664 667.52 608.076 674.381 608.882C679.816 609.52 685.363 609.552 690.75 610.548C692.793 610.926 695.194 611.403 696.968 612.517C700.365 614.652 706.1 625.796 708.754 629.703C709.829 630.197 710.893 630.708 711.903 631.327C715.452 633.501 718.165 637.514 719.026 641.567C720.715 649.529 710.49 664.086 706.013 670.699C706.103 664.827 705.893 660.267 704.128 654.649C701.044 661.7 698.176 668.29 693.071 674.131C695.793 656.605 691.625 653.238 682.103 639.824C682.964 642.434 685.684 647.279 684.738 649.808C678.465 650.287 672.773 637.614 668.278 634.119C661.738 629.033 652.642 628.141 644.948 625.628C632.576 630.417 618.921 632.327 606.137 635.879C600.25 637.515 594.647 640.244 588.842 642.182C602.126 644.106 615.034 647.734 628.477 648.985C635.088 649.599 648.102 648.495 653.527 650.463C658.514 652.273 667.473 661.477 669.461 666.285C673.216 675.367 670.822 682.888 667.156 691.383L665.918 684.516C660.388 681.677 654.478 679.818 648.987 676.829C649.066 679.845 648.96 682.871 648.911 685.887C646.092 681.971 643.735 677.189 639.74 674.313C635.479 671.244 629.378 669.642 624.346 668.42C615.192 666.198 605.417 664.893 596.015 664.377C586.217 663.839 557.477 666.609 551.079 663.052C549.933 662.415 549.249 661.551 548.977 660.241C547.411 652.696 565.898 636.898 570.998 631.737C574.261 628.436 577.293 624.987 580.24 621.402C574.256 616.918 572.431 611.644 570.482 604.74C567.584 609.544 564.635 614.336 561.939 619.258C536.48 665.733 523.372 748.153 538.31 799.383C541.435 810.404 545.893 821.003 551.586 830.945C561.796 848.41 575.783 863.252 590.21 877.257C594.854 881.765 599.417 886.425 604.56 890.372C609.277 893.992 614.275 896.99 619.48 899.836C617.433 889.474 613.373 880.602 613.059 869.737C612.391 846.588 623.51 824.359 638.236 807.085C642.384 802.219 647.088 797.806 651.489 793.168C639.839 793.596 634.031 798.341 626.233 806.358C628.192 802.339 630.762 799.111 633.996 796.057C642.233 788.279 655.708 778.331 667.764 778.952C668.047 778.967 668.329 779.007 668.612 779.006C668.907 779.005 669.2 778.966 669.494 778.946C673.8 776.097 678.26 773.679 682.808 771.248C680.58 769.444 678.188 767.805 675.446 766.892C666.984 764.074 659.422 768.434 652.042 772.041C656.734 767.591 662.698 764.523 668.708 762.269C679.898 758.072 690.968 755.866 702.191 760.955C708.9 758.454 715.445 755.699 722.226 753.363C721.058 751.784 719.851 750.291 718.407 748.951C713.025 743.96 706.425 744.628 699.649 744.885C704.603 742.644 709.99 741.523 715.427 741.601C723.114 741.686 732.046 743.909 737.536 749.584C745.519 747.834 753.647 747.208 761.798 746.953C761.275 745.923 760.72 744.91 760.131 743.916C755.488 736.087 746.79 734.266 738.645 732.21C743.872 731.471 748.722 731.624 753.893 732.669C764.261 734.764 772.541 739.151 778.432 748.128C783.665 749.882 789.089 750.631 794.23 752.753C796.189 744.227 795.527 740.342 791.359 732.669C802.352 741.15 805.79 746.236 808.191 760.335C812.519 763.405 816.269 767.168 820.095 770.826C821.663 769.843 823.014 768.871 823.903 767.196C826.715 761.902 824.536 755.285 822.883 749.972C824.961 752.396 826.808 754.744 828.26 757.602C832.539 766.022 832.32 774.254 829.49 783.04C830.425 784.824 831.535 786.533 832.577 788.258C834.362 790.95 835.943 793.766 837.557 796.562C839.405 795.647 841.342 794.768 843.09 793.675C847.377 790.996 845.236 782.341 846.148 777.879L846.714 778.088C847.85 780.426 848.729 782.903 849.161 785.473C850.811 795.272 847.425 802.629 842.009 810.425L844.409 819.258C851.677 814.552 855.396 809.781 859.648 802.277C857.482 814.617 853.317 824.503 845.545 834.394C844.714 845.876 842.831 856.518 838.492 867.247C827.183 895.212 801.045 917.793 773.523 929.243C732.679 946.235 683.966 947.957 641.381 936.88C625.122 932.651 609.411 926.321 593.911 919.908C597.103 927.324 600.391 931.784 606.402 937.204C605.237 936.821 604.083 936.404 602.942 935.955C590.699 931.06 583.29 923.952 578.097 912.025C573.543 909.451 569.186 906.43 564.791 903.593C563.186 911.794 564.362 917.084 567.157 924.802C565.953 923.839 564.805 922.839 563.732 921.73C556.317 914.138 552.254 903.891 552.453 893.281C549.258 890.49 544.68 884.344 540.721 883.173C540.362 883.475 540.297 883.497 539.993 883.948C536.714 888.806 539.631 899.172 540.331 904.667C533.682 893.655 530.179 881.341 529.22 868.543C526.849 865.431 524.618 861.84 521.147 859.877C520.395 859.867 519.915 859.646 519.34 860.221C516.896 862.657 517.42 876.35 517.064 880.293C512.225 867.967 509.016 857.193 510.872 843.901C509.459 841.575 507.008 835.85 504.722 834.741C503.743 835.257 503.098 835.72 502.413 836.607C497.054 843.543 499.738 854.888 500.932 862.797C495.315 852.592 492.439 840.259 493.346 828.592C493.696 824.096 494.713 819.677 495.21 815.188C493.8 812.083 491.317 804.283 488.858 802.257C488.23 801.74 487.796 801.962 487.05 802.013C486.102 802.635 485.503 803.205 484.858 804.149C481.459 809.126 481.27 814.1 482.307 819.84L482.474 820.731L481.789 821.006C479.413 819.245 478.275 814.427 477.655 811.576C475.333 800.905 477.003 792.238 482.894 783.106C481.004 775.329 479.567 767.491 478.129 759.621C476.6 760.467 475.03 761.423 473.891 762.774C469.709 767.737 470.252 775.083 470.604 781.132C469.422 778.948 468.366 776.908 467.763 774.47C464.548 761.477 467.852 751.188 474.644 740.157C473.122 731.509 472.599 722.609 472.017 713.856C470.613 714.615 469.196 715.415 467.941 716.407C462.71 720.542 462.339 728.159 461.45 734.265C459.909 730.212 458.83 726.005 458.624 721.659C458.008 708.643 464.437 699.894 472.73 690.742C474.233 681.162 474.466 671.503 476.26 661.91C466.834 666.081 464.306 671.635 460.768 680.672C460.386 677.025 460.067 673.457 460.61 669.812C462.25 658.813 471.281 647.676 480.042 641.293C482.556 633.324 484.153 624.84 486.251 616.729C475.179 620.782 470.403 628.689 465.62 638.841C465.15 632.731 465.698 627.43 467.782 621.667C472.397 608.902 482.572 598.269 494.775 592.457C497.654 582.036 501.942 572.158 506.451 562.36C503.829 563.192 501.179 563.981 498.632 565.028C490.465 568.388 483.278 573.25 479.838 581.656L479.383 581.68C479.319 581.504 479.236 581.333 479.191 581.151C478.239 577.257 480.908 570.957 482.817 567.486C489.376 555.565 507.765 540.704 520.809 536.962C523.072 533.94 531.675 523.635 531.653 520.45C530.798 519.882 530.126 519.729 529.121 519.661C517.887 518.899 508.815 524.774 500.786 531.842C502.464 524.739 506.707 519.975 512.488 515.833C522.004 509.014 536.383 502.782 548.305 504.713C553.19 500.086 558.946 496.153 564.139 491.845C562.225 490.132 560.392 488.463 557.95 487.552C545.944 483.076 532.813 489.411 522.046 494.353C525.306 490.539 529.405 487.536 533.793 485.143C548.582 477.075 567.753 473.935 584.047 478.666C588.058 476.49 592.239 474.593 596.351 472.614C585.339 466.909 577.056 465.552 564.797 467.375L565.119 467.095C575.786 457.972 589.034 458.626 602.205 459.581C569.685 438.43 532.305 431.075 493.91 433.875C459.16 436.41 426.122 447.718 396.424 465.772C390.275 469.51 383.781 473.246 378.286 477.916C373.763 481.76 369.976 486.304 366.102 490.779C371.924 479.679 379.317 469.85 383.481 457.833C390.329 438.071 390.355 411.636 381.098 392.706C376.299 382.891 369.107 375.96 358.704 372.435C337.836 444.475 340.279 526.07 355.63 599.028C371.722 673.34 398.703 744.868 435.7 811.295C449.135 835.064 464.73 859.913 484.969 878.56C496.942 889.592 511.306 899.402 525.678 907.03C534.462 911.692 543.568 915.623 551.924 921.068C527.971 913.104 499.928 903.96 479.341 888.975C452.538 869.463 427.651 834.544 407.852 808.119C382.323 774.046 357.366 739.564 331.475 705.764C302.933 668.503 272.823 630.246 235.776 600.977C218.999 587.723 198.605 572.836 175.989 575.622C163.314 577.184 152.448 584.988 144.778 594.907C127.769 616.902 124.278 649.576 126.012 676.476C126.494 683.939 127.767 691.422 128.706 698.844C119.02 668.696 117.074 636.816 116.373 605.344C115.704 584.115 115.861 562.867 116.845 541.65C118.092 515.39 120.753 489.117 123.195 462.943C126.418 428.39 132.852 368.802 122.678 336.4C119.743 327.053 114.273 316.939 105.139 312.409C98.0504 308.893 89.6479 309.605 82.3533 312.114C78.0707 313.587 73.8603 315.749 70.2963 318.556C66.1251 321.842 62.7096 326.147 59.2693 330.169C47.2346 344.239 37.4131 358.699 29.3636 375.401C29.7482 373.851 30.1739 372.311 30.6405 370.783C34.3771 358.763 40.7552 347.328 46.805 336.362C51.2183 328.363 55.6838 320.258 60.9158 312.756C103.228 252.09 181.75 190.985 245.785 154.459C276.325 137.248 308.199 122.517 341.098 110.411C366.148 101.467 391.839 94.4312 417.951 89.3626C427.845 87.4743 446.735 86.159 455.006 83.0799C462.312 80.3599 472.996 71.1532 481.178 66.927C481.474 65.2867 481.994 63.722 483.106 62.447C490.199 54.3131 516.302 52.4763 527.175 51.7093Z"/>
	<path fill="#BD5E51" d="M430.386 131.059L430.696 131.527C419.223 146.677 409.577 169.355 401.79 186.748C393.603 205.034 385.505 223.253 378.244 241.934C351.69 310.245 327.223 398.085 324.313 471.072C321.592 539.31 337.768 613.828 358.722 678.462C364.488 696.745 371.04 714.77 378.361 732.488C387.343 753.751 396.697 774.994 408.046 795.107C412.053 802.227 416.309 809.203 420.808 816.023C422.888 819.245 425.811 822.766 427.337 826.23C421.42 821.431 413.183 807.981 408.124 801.174C392.006 779.833 376.12 758.319 360.468 736.634C349.932 722.279 338.626 708.51 328.146 694.13C299.762 657.832 247.472 594.712 205.996 576.482C193.169 570.844 178.084 568.781 164.773 574.047C147.275 580.97 137.624 595.506 130.554 612.121C132.075 602.295 134.311 592.373 136.259 582.607C144.016 543.709 157.044 505.475 172.11 468.832C216.259 359.686 283.742 261.514 369.829 181.196C388.957 163.45 408.629 145.559 430.386 131.059Z"/>
	<path fill="#7A221E" d="M672.693 424.112C684.178 445.071 693.003 469.886 694.118 493.898C680.827 511.59 649.478 519.373 629.11 526.072C622.065 528.389 614.842 530.297 608.459 534.182C602.331 530.342 592.965 525.368 588.959 519.086C587.834 517.322 587.222 514.903 586.439 512.953C585.803 511.368 585.411 510.604 583.824 509.938C582.834 510.705 582.742 511.379 582.652 512.591C581.601 526.72 601.771 534.952 611.284 541.956C618.952 547.602 626.284 553.824 632.539 561.026C643.174 573.272 652.214 587.926 650.907 604.708C650.568 609.06 650.155 614.191 647.333 617.721C641.565 624.936 615.508 629.065 605.865 631.794C600.397 633.341 595.265 635.225 590.133 637.653C587.617 638.843 584.69 640.05 582.614 641.932C581.749 642.717 581.687 642.876 581.639 643.981C582.613 644.917 583.552 645.237 584.84 645.534C588.793 646.445 592.999 646.46 597.009 647.142C607.742 648.966 618.349 651.474 629.223 652.382C636.109 652.957 645.946 651.435 652.38 653.769C651.615 653.784 650.737 653.737 649.988 653.877C648.445 654.167 647.998 655.3 647.103 656.474C651.67 658.484 655.568 663.114 658.896 666.708C655.247 665.063 648.879 662.477 647.392 658.514C647.159 657.893 647.082 657.404 646.954 656.771C646.313 657.934 646.082 658.696 645.957 660.019C647.682 664.432 653.78 667.891 657.3 670.906C659.237 672.566 662.687 675.667 662.87 678.269C659.241 677.84 651.716 672.976 648.26 671.24L646.569 666.725C645.147 665.845 643.876 664.803 642.135 664.867L641.688 665.589C642.479 668.892 645.001 672.476 646.444 675.654C633.586 661.688 602.771 659.8 584.591 660.042C573.549 660.19 562.539 661.554 551.499 660.772C559.962 645.517 575.98 636.243 585.704 621.911C601.894 623.121 617.174 624.382 631.897 616.064C618.444 618.338 604.792 620.082 591.203 617.738L590.226 617.565C588.245 617.227 587.381 616.542 585.862 615.196C585.134 614.55 585.609 614.734 584.494 614.783L583.747 616.734L583.029 617.042C578.445 613.464 576.474 607.596 574.493 602.335C584.645 607.417 612.888 615.233 624.242 613.217L624.282 612.729C620.331 611.057 615.643 610.54 611.451 609.565C599.469 606.778 587.078 603.406 576.454 597.047C569.556 592.917 562.646 587.303 557.871 580.781C555.441 577.461 552.3 571.437 550.767 567.53C549.557 564.443 548.661 561.163 547.123 558.223C546.822 557.645 546.568 557.366 546.021 557.024C544.371 560.214 547.137 568.017 547.987 571.377C543.334 579.938 537.579 587.868 533.004 596.49C519.878 621.228 511.463 649.607 507.526 677.251C499.171 735.925 509.771 794.758 545.89 842.709C576.013 882.7 625.907 916.342 675.924 923.178C711.083 927.983 760.987 921.186 789.625 899.343C810.566 883.371 823.067 863.226 826.546 836.899C828.878 819.247 824.817 801.53 813.805 787.378C802.614 772.996 786.171 764.745 768.244 762.545C730.549 757.918 688.792 778.138 659.714 800.797C640.407 815.842 625.096 837.703 619.535 861.746C618.015 868.317 617.655 874.952 616.828 881.621L616.394 881.548C615.293 876.084 615.909 869.233 616.383 863.674C618.694 836.612 636.41 811.604 656.655 794.431C662.167 789.755 667.808 784.89 673.77 780.799C700.639 762.36 737.241 748.616 770.035 751.409C791.325 753.222 807.932 763.017 821.594 779.461C835.28 795.935 843.145 818.674 841.151 840.065C838.625 867.176 824.446 889.175 803.704 906.331C769.231 934.843 719.361 943.012 675.886 938.803C640.79 935.405 597.82 921.016 568.873 900.768C556.506 892.121 545.414 881.78 535.923 870.049C519.659 850.277 502.233 821.736 493.197 797.79C489.498 787.988 487.324 777.803 485.181 767.579C479.426 740.131 476.23 713.204 478.998 685.159C481.982 653.953 488.829 623.239 499.382 593.721C511.967 557.648 524.814 529.529 554.867 504.357C564.211 496.53 574.639 488.748 585.304 482.79C590.729 479.759 597.822 478.124 602.571 474.228C602.891 473.072 602.903 472.834 602.215 471.734C599.506 467.397 586.552 463.891 581.764 463.184C590.17 462.453 603.823 462.238 610.9 467.354C617.586 472.187 621.49 481.262 622.637 489.212C624.214 488.665 625.769 488.088 627.23 487.273C651.385 473.803 665.199 449.887 672.693 424.112Z"/>
	<path fill="#BD5E51" d="M431.218 105.062L431.858 105.4C429.532 108.137 424.882 110.061 421.916 112.269C411.844 119.742 401.917 127.409 392.143 135.268C367.369 155.948 343.789 178.018 321.518 201.372C238.863 287.638 165.955 408.549 136.949 524.732C131.527 546.45 126.619 568.64 123.803 590.854C122.845 598.415 122.408 606.047 121.962 613.651C121.723 617.708 122.025 623.162 120.851 627.008C120.093 620.607 120.234 613.927 120.138 607.471C120.01 594.489 119.992 581.506 120.084 568.524C121.245 542.483 123.004 516.473 125.361 490.513C129.079 448.899 140.539 369.197 125.818 330.904C122.148 321.359 115.509 312.067 105.86 307.914C95.8734 303.616 84.5553 306.29 74.8994 310.198C85.3437 299.885 94.5162 288.461 105.221 278.338C177.237 210.234 261.361 155.531 356.042 124.873C380.83 116.846 406.046 111.517 431.218 105.062Z"/>
	<path fill="#FEFEFE" d="M748.738 766.25C751.462 765.918 754.264 765.904 757.006 765.873C775.547 765.666 792.836 771.692 806.117 784.869C817.045 795.903 823.165 810.812 823.142 826.342C823.235 848.47 813.377 871.392 797.694 886.891C771.427 912.848 731.332 920.726 695.557 920.363C670.482 918.983 643.852 914.014 622.031 900.923L621.98 900.475C618.921 870.583 625.208 844.636 644.415 821.185C668.018 792.368 711.961 769.873 748.738 766.25Z"/>
	<path fill="#BD5E51" d="M488.996 355.722C490.711 355.675 492.427 355.649 494.142 355.646C547.623 355.604 632.818 383.24 670.914 421.322C660.293 451.629 650.881 466.547 624.581 485.934C623.988 482.381 623.347 478.926 621.981 475.577C614.735 457.813 595.368 449.221 578.866 442.292C569.73 438.832 560.383 435.961 550.88 433.695C494.049 420.6 436.117 436.042 387.567 466.436C392.164 458.935 397.855 451.979 402.915 444.771C409.119 435.933 415.147 426.98 421.587 418.309C436.514 398.213 452.041 378.605 465.852 357.71C473.492 356.345 481.259 356.07 488.996 355.722Z"/>
	<path fill="#7A221E" d="M481.194 71.9744C482.113 72.377 484.245 79.5966 485.01 81.1419C479.332 85.0374 473.117 86.6304 468.969 92.4986C412.668 172.167 375.655 277.462 353.803 372.015C348.106 396.663 342.296 421.314 340.015 446.562C336.003 490.992 339.525 536.354 347.081 580.26C360.77 659.798 394.774 752.7 436.62 821.719C453.152 848.987 470.964 875.038 497.405 893.706L497.222 894.058C495.287 893.521 493.443 892.27 491.752 891.212C471.245 878.385 455.4 858.791 441.612 839.232C395.393 773.665 364.604 690.053 346.229 612.238C335.434 566.523 329.116 517.801 330.995 470.744C334.527 382.326 366.736 281.578 401.727 200.366C409.799 181.632 417.971 162.626 427.581 144.62C433.591 133.358 440.591 122.582 447.304 111.727C439.777 116.267 432.826 122.738 425.631 127.93C352.01 181.062 289.616 252.276 239.763 327.76C200.959 386.422 170.41 450.143 148.976 517.132C141.619 539.638 134.869 562.736 130.439 586.016C128.454 596.448 126.493 607.308 125.613 617.9C125.121 623.831 125.456 629.809 124.678 635.719L124.578 636.453C123.858 629.543 124.042 622.886 124.908 615.992C128.593 586.656 133.16 557.856 140.677 529.221C175.18 397.803 256.438 269.038 355.193 176.209C375.376 157.078 396.564 139.036 418.666 122.159C427.993 115.057 438.029 108.973 447.255 101.75C448.943 100.429 451.764 98.7779 452.031 96.5786L451.406 95.8984C450.596 95.9336 449.841 95.9624 449.043 96.12C445.679 96.784 442.376 97.8927 439.011 98.6046C405.421 105.711 371.689 113.721 339.347 125.423C310.436 135.944 282.277 148.424 255.065 162.778C245.932 167.669 237.101 173.122 228.224 178.459C220.186 183.292 211.979 187.933 204.143 193.087C148.667 229.578 92.8164 278.578 54.0609 332.595C54.0654 332.397 54.0251 332.193 54.0744 332.001C55.6492 325.88 77.0904 299.473 82.5358 293.257C152.45 214.573 240.385 153.997 338.817 116.711C364.094 107.336 389.417 100.525 415.851 95.2775C422.267 93.9488 428.716 92.7819 435.191 91.7779C441.888 90.7601 449.596 90.3483 455.923 87.914C464.438 84.6371 473.568 77.121 481.194 71.9744Z"/>
	<path fill="#7A221E" d="M680.434 192.704C701.901 199.652 710.723 197.889 731.814 199.125C748.433 200.099 766.314 202.89 782.07 208.378C785.604 209.609 789.262 210.95 792.553 212.749C795.643 214.438 805.455 223.377 808.203 222.531C808.49 221.442 808.539 221.257 807.942 220.223C806.51 217.743 796.625 210.406 796.535 209.677C807.992 213.939 812.996 226.578 821.876 234.224C827.296 238.89 834.923 241.184 839.503 246.697C841.179 259.037 846.08 273.012 856.388 280.825C858.902 282.731 864.816 286.923 867.97 286.637C869.231 286.522 869.896 286.042 870.547 284.992C871.814 282.945 871.568 277.894 871.739 275.462C876.157 285.66 878.941 294.508 876.952 305.654C875.161 304.668 873.332 303.72 871.607 302.621C871.401 301.096 871.364 299.172 870.488 297.874C870.199 299.4 870.298 301.882 869.064 302.751C857.262 300.992 848.621 298.339 841.228 288.354C838.475 284.635 835.392 280.419 830.837 278.817C829.06 278.192 827.237 278.121 825.724 276.901C828.596 275.9 834.456 278.713 837.174 280.034C841.34 282.06 845.075 284.439 849.498 285.937C846.175 282.516 842.463 279.557 839.12 276.15L837.547 276.919C828.994 273.821 820.43 270.715 811.236 270.444C809.295 268.953 807.439 267.083 805.439 265.73C801.485 263.053 792.7 261.561 787.807 259.598L787.169 260.004C788.176 262.233 790.338 263.524 792.558 264.36C799.243 266.877 805.09 267.833 809.927 273.606C810.021 274.476 810.091 275.314 810.089 276.189C810.772 275.192 811.023 274.226 812.277 273.994C815.23 273.447 818.687 274.658 821.669 274.956C820.638 275.966 819.729 276.942 818.861 278.098C818.203 278.974 817.545 279.769 816.411 280.042C814.823 280.425 813.47 279.448 812.304 278.506C811.487 277.846 810.69 277.141 809.923 276.424C809.655 277.643 809.511 278.225 810.257 279.374C811.218 280.855 813.307 281.677 814.941 282.099C814.579 282.87 814.236 283.519 814.071 284.359C814.92 286.327 816.317 287.828 817.761 289.376C819.512 291.253 828.34 300.643 830.231 300.7L829.766 297.929L830.431 298.021C832.364 299.854 833.641 302.177 835.006 304.445C838.469 310.2 847.876 315.959 850.026 319.316C850.882 320.653 851.197 323.083 851.557 324.636C844.012 323.839 838.976 324.2 831.794 326.663C832.803 324.231 833.623 321.716 834.493 319.232C831.333 322.05 828.901 325.828 826.381 329.216C827.483 324.49 829.147 319.508 826.974 314.851C824.58 309.723 820.604 305.18 816.619 301.228C799.912 284.664 784.893 284.397 764.229 276.895C766.144 274.667 767.737 272.614 769.15 270.018C774.753 272.147 779.76 273.431 785.764 273.787C783.599 272.4 781.247 271.379 778.923 270.291C777.727 270.196 775.743 269.478 774.649 268.953C773.486 268.394 773.307 267.518 772.983 266.378C773.546 265.18 773.575 265.282 774.829 264.811C778.807 265.261 781.016 267.782 783.933 270.302C786.908 272.186 789.754 273.714 792.979 275.116C789.548 271.748 786.184 268.329 782.205 265.597C775.44 260.952 757.138 253.382 749.146 253.4C736.201 253.428 721.901 260.713 712.986 269.839C702.798 280.267 698.114 296.102 698.472 310.441C699.449 349.592 736.599 377.511 731.749 417.445C721.571 402.095 703.487 391.895 687.538 383.438C688.481 376.493 689.288 366.253 684.643 360.247C683.851 359.223 682.761 358.359 681.421 358.268C678.282 358.052 675.376 361.089 673.482 363.204C672.517 364.299 671.584 365.421 670.683 366.57C672.855 358.283 674.834 353.434 681.456 347.72C680.063 342.09 677.977 328.913 672.843 325.9C671.116 324.887 669.24 324.873 667.36 325.43C665.073 326.107 663.333 327.485 661.573 329.037C663.935 321.979 667.092 317.168 671.698 311.366C671.491 304.495 671.749 297.77 672.408 290.922C667.183 289.841 663.504 290.607 658.368 291.972C663.274 284.797 667.813 279.689 676.006 276.297L676.083 275.597C676.339 273.443 676.685 271.36 677.453 269.315C678.661 266.101 683.339 259.783 681.868 256.675C679.362 255.283 675.147 256.653 672.507 257.4C670.129 258.063 667.782 258.832 665.473 259.703C672.032 254.219 679.935 250.7 688.21 248.723C690.657 243.432 695.455 239.978 698.486 235.098C693.015 233.559 687.552 232.475 681.952 231.538C690.634 229.545 698.669 227.811 707.537 229.96C708.862 226.685 710.916 225.224 714.11 223.857C715.643 223.21 717.185 222.585 718.736 221.983C714.897 218.312 711.33 216.548 706.5 214.455C712.957 215.208 720.19 216.88 725.774 220.37C729.639 222.787 732.801 226.209 735.993 229.422C744.861 238.344 753.647 246.833 765.797 251.023C769.845 252.419 774.522 253.291 778.658 251.81C778.578 250.896 778.753 251.317 778.087 250.61C774.239 246.529 771.788 241.396 768.785 236.698C765.822 232.062 762.376 228.4 758.424 224.611C753.103 219.509 747.417 214.543 740.812 211.166C734.586 207.983 727.448 206.626 720.641 205.266C706.332 202.408 693.286 200.137 680.434 192.704Z"/>
	<path d="M794.497 245.772C791.635 245.259 788.659 244.88 785.876 244.019C783.341 243.236 777.19 241.291 776.177 238.666C775.493 236.892 775.696 235.011 776.301 233.272C776.984 232.611 777.175 232.262 778.126 231.999C782.227 230.863 787.556 234.609 791.755 235.064C794.946 235.41 799.663 233.889 802.457 235.7C803.093 236.113 803.007 236.517 803.169 237.196L802.277 237.788C796.893 238.435 788.864 238.97 783.903 236.754C782.141 235.967 780.53 234.98 778.547 235.321L778.188 236.045C779.156 238.376 781.603 240.548 784.084 241.168C786.972 241.89 790.774 241.738 793.751 241.655C803.609 241.381 812.909 240.738 822.213 244.77C824.935 243.658 827.917 244.334 830.61 245.513C831.687 245.984 832.765 246.646 833.093 247.86C833.203 248.267 833.146 248.324 833.066 248.717C834.577 249.192 835.531 249.246 836.364 250.787C836.985 251.936 836.848 252.447 836.491 253.586C835.666 254.189 835.466 254.349 834.418 254.507C833.884 256.227 834.094 256.381 834.705 257.999C835.523 257.06 835.566 256.964 836.769 256.69L837.403 257.219C837.587 258.364 837.61 258.349 836.999 259.331C835.979 259.815 835.249 260.17 834.101 260.248C830.94 260.464 826.642 257.727 824.311 255.856C823.291 256.521 822.254 257.214 821.157 257.746C817.172 259.681 811.331 259.169 807.245 257.844C800.974 255.811 797.273 251.51 794.497 245.772Z"/>
	<path fill="#91221D" d="M820.9 248.22C825.509 250.039 830.279 251.738 834.418 254.507C833.884 256.227 834.094 256.381 834.705 257.999L833.754 258.106C829.074 255.169 824.677 252.296 820.9 248.22Z"/>
	<path fill="#91221D" d="M822.213 244.77C824.935 243.658 827.917 244.334 830.61 245.513C831.687 245.984 832.765 246.646 833.093 247.86C833.203 248.267 833.146 248.324 833.066 248.717C829.299 247.854 825.654 246.528 822.213 244.77Z"/>
	<path fill="#91221D" d="M798.354 245.949C803.732 245.808 801.807 248.588 805.1 249.676C807.314 250.408 809.918 249.335 812.029 250.468C812.662 252.053 812.4 252.853 812.19 254.524C810.866 254.843 809.573 254.768 808.245 254.492C803.354 253.477 800.82 249.916 798.354 245.949Z"/>
	<path fill="#BD5E51" d="M816.857 251.032C818.244 251.49 819.444 251.966 820.713 252.693L820.88 253.623L819.691 254.702C818.301 255.094 817.202 255.404 815.733 255.268C815.367 253.912 816.333 252.344 816.857 251.032Z"/>
	<path d="M757.267 207.394C761.58 208.218 764.569 210.837 768.466 212.524C771.137 213.681 774.227 214.19 777.058 214.87C784.675 216.699 790.647 219.749 796.676 224.757C787.495 222.789 779.594 219.023 770.093 217.101C771.338 218.528 773.425 221.185 773.846 223.024C774.009 223.739 773.593 223.975 773.206 224.527C770.148 225.524 767.519 215.68 763.98 214.654C763.332 215.271 762.934 215.572 762.125 216.013C757.883 214.856 752.809 210.461 749.089 207.948C752.651 208.58 756.368 209.469 759.62 211.116C761.025 211.828 762.228 212.861 763.705 213.426C761.99 211.097 759.344 209.417 757.267 207.394Z"/>
	<path fill="#7A221E" d="M458.144 344.851C467.453 341.234 480.278 340.928 490.247 341.065C536.769 341.704 580.234 355.78 623.985 369.922C638.004 374.453 652.528 378.3 666.328 383.378C684.141 389.932 711.617 404.881 724.674 418.434C730.072 424.036 733.055 429.951 735.756 437.199C747.877 469.726 735.88 500.781 735.315 533.553C738.276 538.45 740.226 543.855 743.219 548.752C751.074 561.601 777.467 600.296 788.479 607.665C794.824 611.911 814.178 617.769 817.78 622.004C819.226 623.704 819.059 625.23 818.954 627.31C817.768 628.834 816.955 630.558 815.809 632.066C814.88 631.339 813.817 630.403 812.755 629.871C811.549 629.266 810.57 629.641 809.407 630.067C808.796 635.391 823.388 640.549 825.277 646.921C825.047 648.334 824.909 648.535 823.984 649.639C819.639 650.858 811.082 638.656 806.694 636.843L806.137 637.436C806.796 643.479 816.989 647.924 818.274 655.211C817.981 655.905 818.005 656.36 817.258 656.675C815.165 657.558 812.366 656.266 810.332 655.587C807.108 649.411 801.842 637.423 794.741 635.05C793.501 634.636 792.207 634.674 791.055 635.343C788.462 636.848 787.846 640.013 787.14 642.681C784.79 638.56 774.355 618.007 773.999 615.167C773.842 613.917 773.851 613.102 772.981 612.141C762.246 600.275 750.316 589.569 738.451 578.858C731.905 572.948 725.412 566.627 718.35 561.334C713.962 558.045 708.989 555.42 704.427 552.359C700.663 543.379 702.817 532.892 702.119 523.357C701.254 511.535 699.786 499.228 697.809 487.536C694.315 466.877 684.484 433.731 671.673 417.013C667.699 411.828 662.634 407.593 657.33 403.831C614.124 373.196 545.472 351.483 492.537 351.416C484.356 351.406 475.745 351.528 467.704 353.109C466.016 353.441 464.359 353.949 463.099 355.173C458.18 359.949 454.219 367.223 450.107 372.804C438.654 388.346 426.788 403.678 416.019 419.702L415.515 419.691C417.143 415.145 421.066 410.952 423.645 406.867C435.853 387.53 452.949 367.451 458.144 344.851Z"/>
	<path fill="#BD5E51" d="M405.579 222.351C408.721 226.76 411.251 232.194 413.83 236.97C429.448 265.899 440.016 296.947 448.958 328.497C450.601 334.296 451.362 340.327 453.143 346.086L453.321 346.644C446.571 367.213 432.073 386.191 420.304 404.173C412.341 416.448 404.491 428.797 396.757 441.218C394.692 444.665 392.556 448.069 390.352 451.429C394.528 431.599 393.998 406.696 383.947 388.652C378.283 378.484 370.704 371.865 359.471 368.725C366.353 334.287 378.625 295.159 390.559 262.009C395.348 248.704 400.776 235.642 405.579 222.351Z"/>
	<path fill="#FEFEFE" d="M747.982 257.695C748.235 257.681 748.487 257.663 748.74 257.654C754.682 257.427 765.82 259.869 770.136 264.024L770.03 264.823C765.998 266.601 758.699 263.468 754.179 263.453C746.613 263.428 738.649 264.967 731.631 267.789C728.671 268.979 725.258 270.672 724.113 273.876C722.96 277.1 724.779 282.045 726.02 285.057C725.967 282.012 725.751 278.821 726.09 275.79C726.291 273.997 726.755 272.782 728.273 271.729C736.399 266.092 757.736 267.197 767.19 268.437C765.4 270.9 763.527 273.31 761.693 275.74C755.806 274.657 750.569 274.049 744.685 275.82C736.257 278.356 728.807 284.671 724.829 292.499C719.15 303.675 720.788 314.426 724.582 325.818C718.833 322.778 714.306 318.628 708.93 315.122L708.489 315.568C708.471 316.286 708.482 316.924 708.745 317.606C711.036 323.532 720.65 326.911 726.127 329.166C730.144 335.043 733.386 341.062 738.013 346.569C731.366 342.682 723.894 337.659 715.992 337.138C714.604 337.047 713.644 336.904 712.567 337.803C712.79 338.045 712.965 338.342 713.236 338.529C714.803 339.609 718.505 340.304 720.426 341.112C725.481 343.238 730.216 346.13 735.292 348.183C736.945 348.852 738.801 348.973 740.521 349.536C746.446 355.394 751.999 361.651 757.641 367.78C773.332 384.827 787.603 401.72 794.486 424.354C797.941 435.578 799.214 447.36 798.236 459.063C794.909 495.048 769.619 517.854 743.488 539.531C741.858 536.842 740.489 533.97 739.052 531.172C739.704 521.573 741.544 512.219 743.252 502.771C748.963 471.176 748.563 454.812 734.79 425.581C735.946 417.803 737.033 409.958 736.415 402.08C733.926 370.372 706.297 346.96 702.849 315.323C701.342 301.494 704.767 285.804 713.706 274.865C722.047 264.658 735.09 258.988 747.982 257.695Z"/>
	<path d="M751.422 453.771C751.669 453.946 751.941 454.089 752.162 454.295C757.782 459.52 766.26 502.432 766.237 510.569C765.347 510.846 764.719 510.959 763.786 510.916C761.896 508.441 759.059 488.207 758.047 483.473C756.396 475.751 751.271 460.923 751.422 453.771Z"/>
	<path d="M749.208 431.438C749.473 431.615 749.755 431.769 750.003 431.968C753.567 434.84 756.982 439.035 760.046 442.475C772.714 456.692 780.653 470.088 782.375 489.311C781.143 486.761 780.393 483.789 779.384 481.119C776.832 474.367 774.011 467.98 770.219 461.813C765.72 454.496 750.792 438.698 749.208 431.438Z"/>
	<path d="M745.887 411.933C752.246 411.993 764.069 421.496 768.818 425.499C777.44 432.766 788.073 444.955 789.066 456.649C786.155 452.228 784.199 447.564 780.906 443.247C773.973 434.159 765.318 427.132 756.319 420.223C753.123 417.768 749.549 415.393 746.626 412.641L745.887 411.933Z"/>
	<path d="M744.72 397.059C746.631 396.937 748.515 397.529 750.313 398.129C764.975 403.023 782.57 415.516 789.557 429.648C786.009 428.107 776.457 417.137 771.908 413.771C765.446 408.991 748.881 401.104 744.72 397.059Z"/>
	<path d="M736.117 377.679C739.349 377.554 742.267 378.124 745.337 379.064C753.223 381.478 769.132 389.094 773.142 396.663C765.215 391.626 756.666 387.481 748.072 383.706C744.246 382.026 739.845 380.935 736.319 378.744L736.117 377.679Z"/>
	<path d="M726.223 358.322C730.798 358.48 735.49 359.913 739.764 361.484C744.27 363.141 758.092 369.556 759.964 373.626L759.283 373.576C748.102 367.715 736.218 364.964 724.852 359.898L724.73 359.341L726.223 358.322Z"/>
	<path d="M708.888 295.765C709.32 295.884 709.644 295.946 710.04 296.201C712.01 297.469 718.661 309.914 719.189 312.465C719.028 312.486 718.868 312.525 718.705 312.529C717.793 312.554 717.442 312.598 716.747 311.989C713.654 309.28 709.223 299.817 708.888 295.765Z"/>
	<path d="M714.623 279.189C715.138 279.461 715.857 279.791 716.278 280.222C719.17 283.179 721.191 291.799 720.988 295.748C716.59 291.839 715.046 284.868 714.623 279.189Z"/>
	<path fill="#BD5E51" d="M432.602 163.313C437.108 172.25 440.861 181.63 445.192 190.666C450.943 202.444 457.383 213.872 464.479 224.892C490.172 265.287 525.824 298.476 562.882 328.253C578.245 340.597 591.133 350.908 608.566 360.566C604.099 359.013 599.615 357.512 595.113 356.063C558.212 343.194 500.616 331.649 461.604 338.663C459.785 326.245 458.577 313.985 456.048 301.643C451.483 279.365 431.721 209.365 418.905 190.918C423.358 181.661 427.924 172.458 432.602 163.313Z"/>
	<path fill="#7A221E" d="M592.844 103.493C595.389 103.517 599.753 106.812 602.412 107.971C602.012 108.347 601.618 108.73 601.23 109.118C596.151 114.167 592.999 121.69 590.017 128.13C575.732 158.977 563.02 204.895 562.914 238.951C562.87 253.053 564.371 268.813 569.211 282.157C578.088 306.631 604.496 333.09 623.253 350.87C629.109 356.421 635.342 361.576 641.03 367.3C621.183 354.133 596.124 340.766 580.205 323.397C574.105 316.742 570.273 309.156 566.965 300.812C557.164 276.091 556.591 253.506 557.699 227.375C558.298 217.697 558.084 207.896 559.172 198.256C560.833 183.533 564.237 169.049 566.362 154.383C561.607 158.084 557.48 162.891 553.118 167.066C546.024 173.856 538.899 180.566 532.223 187.778C524.807 195.788 517.883 204.32 510.817 212.64C503.856 220.837 497.34 229.711 489.851 237.414C486.344 232.477 482.839 227.559 479.597 222.442C491.345 206.843 506.395 193.644 520.655 180.394C533.225 168.715 549.433 157.878 555.716 141.317C540.287 128.989 514.656 118.805 503.055 103.432C536.075 109.837 559.509 114.819 592.844 103.493Z"/>
	<path fill="#BD5E51" d="M559.253 168.438L559.418 168.598C561.707 175.95 531.096 266.725 526.982 279.464C521.699 274.136 516.513 268.714 511.425 263.2C505.131 256.489 499.189 249.432 493.271 242.391C513.453 216.432 534.696 190.418 559.253 168.438Z"/>
	<path fill="#BD5E51" d="M550.053 143.071L550.442 143.326C550.3 146.073 544.815 151.709 542.842 153.76C537.015 159.818 530.568 165.384 524.381 171.075C515.11 179.555 505.942 188.147 496.879 196.85C489.818 203.62 482.492 210.483 476.618 218.332C473.372 213.998 470.732 209.058 468.174 204.293C462.437 193.984 457.467 183.246 452.456 172.57C462.44 168.448 472.712 165.366 482.997 162.12C495.766 157.96 508.61 154.033 521.522 150.339C530.988 147.726 540.577 145.636 550.053 143.071Z"/>
	<path fill="#BD5E51" d="M478.953 102.221C485.242 102.014 491.494 102.334 497.753 102.948C503.619 115.018 519.618 123.227 530.647 130.042C514.211 133.138 497.628 136.631 481.764 141.997C469.67 146.054 457.55 149.755 445.761 154.673C444.638 151.495 443.384 148.391 442.086 145.28C451.083 131.418 457.752 116.001 467.892 102.858C471.525 102.408 475.292 102.396 478.953 102.221Z"/>
	<path fill="#FEFEFE" d="M695.277 501.379L695.775 501.917C697.453 510.072 698.951 535.367 696.77 543.03C694.207 545.63 689.471 546.704 686.094 547.896C688.086 540.301 688.322 532.294 687.341 524.523C687.121 522.78 686.853 521.454 685.43 520.354C685.226 520.7 683.494 545.332 682.725 548.826C677.631 551.101 672.041 552.468 666.674 553.963C667.102 552.634 667.51 551.299 667.897 549.957C669.134 545.622 671.957 534.838 669.347 530.815C668.885 530.102 668.444 530.191 667.68 529.995C666.09 531.937 666.005 543.764 665.174 547.245C664.431 550.359 663.327 552.741 661.712 555.456C659.81 556.273 657.813 556.931 655.872 557.651L648.872 559.456C651.581 553.704 654.292 546.773 654.139 540.31C654.094 538.383 653.904 535.991 652.409 534.635L651.717 534.774C650.692 537.039 650.759 540.144 650.445 542.611C649.684 548.597 648.327 554.776 645.343 560.076C645.24 560.258 645.133 560.439 645.028 560.62L639.752 563.188C638.622 561.878 637.563 560.501 636.482 559.151C640.216 548.834 638.544 539.341 634.295 529.563C655.383 521.314 678.852 518.43 695.277 501.379Z"/>
	<path fill="#7A221E" d="M439.258 150.482C442.187 153.445 446.557 168.943 448.522 173.792C461.12 204.876 479.94 233.68 501.893 258.944C528.761 289.864 563.736 320.437 597.688 343.367C608.973 350.99 620.578 358.32 632.052 365.665C635.358 367.781 640.162 369.46 642.911 372.154L641.357 371.969C637.088 369.975 632.237 368.668 627.779 367.078C603.737 358.502 584.988 341.002 565.774 324.863C558.713 318.932 551.395 313.321 544.429 307.274C516.608 283.124 490.406 256.146 469.821 225.462C455.264 203.762 446.455 181.867 435.411 158.6L439.258 150.482Z"/>
	<path fill="#7A221E" d="M416.658 195.872C421.22 202.466 426.79 218.654 429.63 226.686C440.823 258.339 450.795 289.825 455.53 323.159C456.404 329.313 457.794 335.931 457.424 342.14C456.31 340.293 456.078 337.742 455.657 335.637C443.515 290.596 432.147 257.226 408.142 216.879C411.303 210.012 414.144 203.002 416.658 195.872Z"/>
	<path fill="#451411" d="M778.275 511.389C778.918 512.407 778.733 512.722 778.671 513.898C777.908 528.361 775.816 542.424 776.014 557.011C776.182 569.34 778.231 581.369 780.537 593.444C776.14 588.995 772.354 583.159 768.495 578.191C760.258 567.498 753.505 555.25 746.39 543.79C755.237 535.796 764.865 527.664 772.737 518.729C774.783 516.407 776.354 513.803 778.275 511.389Z"/>
	<path fill="#7A221E" d="M535.491 132.587C539.517 134.473 543.45 137.238 547.259 139.571C540.54 141.23 533.737 142.431 527.037 144.219C503.266 150.563 479.54 158.374 456.298 166.484L450.604 168.456L447.074 158.496C465.138 152.032 483.617 145.648 502.159 140.704C512.998 137.814 525.016 136.409 535.491 132.587Z"/>
	<path fill="#7A221E" d="M654.131 609.906C660.277 610.039 666.265 611.229 672.352 611.962C679.908 612.873 687.889 613.207 695.21 615.389C696.846 617.485 697.99 619.632 699.171 621.994L691.318 622.042C696.151 631.197 702.6 629.305 707.632 637.072C705.999 638.203 704.284 639.224 702.597 640.273C696.356 635.212 692.359 629.445 684.628 626.213L683.216 626.742L683.048 627.456C687.876 631.819 692.08 635.964 696.288 640.964L692.766 645.934C691.959 644.558 691.125 643.202 690.175 641.919C688.156 639.191 682.918 631.659 679.508 631.149C678.313 631.928 678.159 632.238 677.481 633.513C677.503 634.173 677.547 634.614 677.788 635.243C677.852 635.409 677.929 635.571 677.999 635.734C667.763 626.852 662.169 624.502 648.821 621.872C652.651 617.972 653.903 615.411 654.131 609.906Z"/>
	<path fill="#7A221E" d="M555.181 204.862C555.98 210.266 554.629 216.886 554.25 222.344C553.773 229.218 554.19 236.253 553.348 243.079C552.399 250.775 550.509 258.328 548.893 265.901C546.882 275.55 544.975 285.219 543.173 294.908C541.251 292.99 539.192 291.195 537.187 289.364L530.476 282.996C537.229 265.601 542.122 247.224 547.415 229.331C549.808 221.243 551.859 212.618 555.181 204.862Z"/>
	<path fill="#FEFEFE" d="M550.227 576.831C552.136 578.656 553.515 582.463 555.058 584.738C558.674 590.067 563.856 594.294 568.761 598.379C564.145 607.202 558.472 615.364 554.118 624.368C551.849 615.259 546.694 609.106 540.774 602.112C539.395 600.68 537.832 599.404 536.337 598.095C538.724 592.698 542.34 587.899 545.757 583.122C553.763 590.27 556.894 598.561 563.694 606.199C559.293 597.296 555.465 587.474 547.142 581.492L550.227 576.831Z"/>
	<path fill="#FEFEFE" d="M526.968 619.449C536.21 627.097 541.328 631.113 546.283 642.805C544.572 648.484 543.099 655.452 540.223 660.583C535.825 650.767 529.864 644.414 520.308 639.395C522.334 632.699 524.73 626.079 526.968 619.449Z"/>
	<path fill="#FEFEFE" d="M513.743 665.31C522.403 669.345 528.369 676.778 534.816 683.59C533.329 690.539 531.96 697.512 530.707 704.507C524.957 695.511 519.86 690.276 509.932 686.02C511.106 679.082 512.106 672.163 513.743 665.31Z"/>
	<path fill="#FEFEFE" d="M519.354 642.793C528.484 647.859 534.41 654.809 539.28 663.935C538.427 668.045 537.117 677.954 534.95 680.995C529.52 672.848 522.892 666.396 514.232 661.855L519.354 642.793Z"/>
	<path fill="#FEFEFE" d="M535.094 600.998C544.947 608.916 546.81 616.919 553.957 624.406C551.845 629.404 549.882 634.546 547.464 639.402C544.287 630.393 537.906 622.77 529.926 617.599C529.234 617.635 528.814 617.663 528.138 617.473C528.816 612.132 532.74 605.878 535.094 600.998Z"/>
	<path fill="#FEFEFE" d="M509.625 689.083C518.065 692.327 523.108 699.329 530.005 704.7L530.629 705.181C529.969 711.005 529.366 716.835 528.819 722.67C528.19 722.816 524.003 716.818 523.072 715.911C518.847 711.795 514.165 710.32 508.564 709.201C508.605 702.528 509.278 695.756 509.625 689.083Z"/>
	<path fill="#FEFEFE" d="M508.624 711.315C517.342 714.009 522.501 719.025 528.505 725.678C528.542 730.851 528.263 736.036 528.074 741.205C522.334 736.074 516.958 731.733 509.128 730.727C508.452 724.248 508.516 717.815 508.624 711.315Z"/>
	<path fill="#BD5E51" d="M554.192 267.862C557.094 288.119 562.597 302.394 572.555 320.05L568.728 316.607C561.614 310.639 554.286 304.98 547.389 298.749C550.082 288.547 551.512 278.052 554.192 267.862Z"/>
	<path fill="#FEFEFE" d="M509.418 733.25C517.101 734.806 522.34 739.139 527.957 744.315L528.075 760.774C522.747 756.899 518.381 754.145 511.736 753.005C510.475 746.536 509.901 739.818 509.418 733.25Z"/>
	<path fill="#FEFEFE" d="M631.512 530.569C631.658 530.732 631.822 530.882 631.951 531.06C637.057 538.063 636.011 548.722 634.471 556.705L629.004 551.662L622.604 545.818C621.677 541.779 620.267 538.628 618.239 535.063L631.512 530.569Z"/>
	<path fill="#FEFEFE" d="M512.126 755.543C517.93 756.817 523.456 760.517 528.2 763.952C528.626 769.364 529.155 774.767 529.786 780.159C528.988 780.1 529.346 780.209 528.551 779.734C524.798 777.492 521.593 776.183 517.263 775.445C515.3 768.879 513.586 762.24 512.126 755.543Z"/>
	<path fill="#FEFEFE" d="M680.315 362.782C680.779 362.997 681.123 363.118 681.512 363.502C685.725 367.656 683.928 380.796 683.551 386.422L676.631 383.333C674.186 382.338 671.998 381.286 669.722 379.938C671.569 372.322 674.013 367.666 680.315 362.782Z"/>
	<path fill="#FEFEFE" d="M532.817 814.847C532.93 814.902 533.043 814.956 533.155 815.011C535.571 816.217 537.683 817.053 540.304 817.716C551.017 841.066 565.788 858.036 583.591 876.048C580.248 874.553 576.71 870.565 574.024 868.017C559.143 853.905 541.081 833.64 532.817 814.847Z"/>
	<path fill="#FEFEFE" d="M517.84 778.375C522.584 778.624 526.048 780.464 529.886 783.062L533.354 798.21C530.116 796.162 527.035 794.945 523.358 794.008C520.954 789.059 519.429 783.632 517.84 778.375Z"/>
	<path fill="#7A221E" d="M517.366 542.035C517.571 542.202 517.586 542.515 517.677 542.763C509.565 557.837 502.728 558.651 488.607 566.019L488.162 565.452C493.033 557.839 509.41 546.725 517.366 542.035Z"/>
	<path fill="#7A221E" d="M818.954 627.31L820.92 628.153C824.518 629.449 827.93 630.903 831.361 632.59C831.482 635.603 832.409 641.191 830.312 643.473C827.806 643.168 821.48 635.997 818.799 633.981L815.809 632.066C816.955 630.558 817.768 628.834 818.954 627.31Z"/>
	<path fill="#451411" d="M818.954 627.31L820.92 628.153C819.543 629.607 819.763 632.119 818.799 633.981L815.809 632.066C816.955 630.558 817.768 628.834 818.954 627.31Z"/>
	<path fill="#FEFEFE" d="M524.209 796.871C527.408 797.693 530.583 798.713 533.756 799.634C535.536 805.172 537.454 810.665 539.509 816.108C529.295 811.365 528.004 807.033 524.209 796.871Z"/>
	<path fill="#7A221E" d="M491.432 598.536L491.654 598.845C491.682 602.361 488.897 607.691 487.661 611.09C482.553 613.329 478.39 616.002 473.976 619.408L473.717 619.175C473.732 618.865 473.707 618.551 473.761 618.245C474.684 613.083 487.303 601.803 491.432 598.536Z"/>
	<path fill="#7A221E" d="M559.193 481.146C566.064 480.099 573.755 481.069 580.587 482.039C577.431 483.529 574.526 485.12 571.642 487.088L568.591 489.097C563.274 483.922 558.957 483.3 551.84 482.659C554.276 482.051 556.724 481.595 559.193 481.146Z"/>
	<path fill="#FEFEFE" d="M831.57 282.756C834.224 284.361 841.761 293.975 844.397 296.884L843.863 298.143C842.306 299.469 840.811 299.872 838.868 300.436C838.821 300.268 838.772 300.101 838.729 299.933C838.665 299.686 838.61 299.438 838.545 299.192C838.187 297.838 838.105 297.356 838.529 295.996C838.583 295.826 838.884 294.926 838.907 294.729C839.083 293.195 838.748 292.884 837.882 291.726L837.148 291.698C836.676 293.041 836.253 294.132 835.403 295.301C834.167 295.543 834.109 295.482 832.967 294.928C830.768 291.919 831.545 286.393 831.57 282.756Z"/>
	<path fill="#FEFEFE" d="M846.021 297.692L852.721 301.454C851.971 303.331 851.089 305.167 850.261 307.012C850.401 308.589 850.835 310.22 850.836 311.802C850.837 313.582 850.14 314.13 849.031 315.365C847.488 315.346 846.51 314.925 845.331 313.95C844.946 312.388 845.252 311.929 845.831 310.443C847.363 306.507 845.46 305.364 844.729 301.706C844.395 300.031 845.228 299.064 846.021 297.692Z"/>
	<path fill="#7A221E" d="M541.146 509.14L543.096 509.04L543.721 509.747C543.416 511.067 542.772 511.948 541.891 512.948C537.172 518.309 533.403 514.821 526.714 515.159L525.731 515.215C524.023 515.403 522.242 515.303 520.522 515.294C527.566 513.391 533.844 510.484 541.146 509.14Z"/>
	<path fill="#91221D" d="M814.941 282.099C826.331 284.945 822.966 287.117 830.697 294.319L830.863 295.099C829.749 295.399 829.001 295.482 827.92 294.949C822.65 292.35 819.037 287.048 814.071 284.359C814.236 283.519 814.579 282.87 814.941 282.099Z"/>
	<path fill="#91221D" d="M471.384 697.942C472.999 700.034 472.801 704.391 472.986 706.989C470.13 709.22 467.315 711.362 464.886 714.066L464.219 714.326C464.173 714.088 464.119 713.851 464.081 713.612C463.188 708.073 468.197 702.008 471.384 697.942Z"/>
	<path fill="#7A221E" d="M684.264 762.199C686.862 761.824 690.621 761.657 693.243 761.902C694.275 761.998 694.48 761.915 695.132 762.765C694.32 764.955 690.21 766.658 688.2 767.766C685.466 768.939 679.318 764.214 676.244 763.035L684.264 762.199Z"/>
	<path fill="#7A221E" d="M703.335 642.029C705.447 642.204 707.58 641.982 709.692 641.852L711.876 647.694L710.52 653.399L709.982 654.188L709.235 654.07C706.767 650.366 704.978 646.151 703.335 642.029Z"/>
	<path fill="#7A221E" d="M478.092 647.821L478.693 648.672C478.732 651.523 478.028 654.24 477.435 657.013C473.759 658.429 470.926 659.655 468.1 662.555L467.699 661.956C469.401 656.897 474.405 651.628 478.092 647.821Z"/>
	<path fill="#7A221E" d="M698.595 642.502C699.151 643.032 699.639 643.687 700.132 644.271C700.46 646.904 700.845 649.552 700.465 652.201C700.203 654.023 699.616 655.172 698.149 656.304C696.793 653.792 695.948 651.134 695.042 648.437L698.595 642.502Z"/>
	<path fill="#FEFEFE" d="M858.055 312.55C858.838 313.499 859.144 315.933 859.451 317.192C857.646 319.023 855.801 320.656 853.808 322.273C853.055 321.512 852.534 320.856 852.153 319.855C851.649 318.53 851.565 317.308 852.334 316.042C853.651 313.874 855.771 313.286 858.055 312.55Z"/>
	<path fill="#FEFEFE" d="M825.49 280.197C826.426 279.513 826.537 279.489 827.699 279.444C829.688 280.868 830.153 282.309 830.541 284.674C830.834 286.501 830.811 288.364 830.473 290.183L829.53 290.446C827.703 289.075 826.444 287.524 825.028 285.76C825.16 283.904 825.269 282.045 825.49 280.197Z"/>
	<path fill="#FEFEFE" d="M854.555 301.758L856.657 302.723C857.394 303.059 858.281 303.372 858.926 303.868C859.98 304.677 860.069 305.404 860.159 306.644C859.546 308.144 858.912 308.952 857.757 310.079C856.316 310.9 854.75 311.569 853.256 312.29C853.593 308.757 853.996 305.264 854.555 301.758Z"/>
	<path fill="#91221D" d="M484.757 788.873C485.976 790.548 486.491 792.997 487.134 794.963C484.806 797.435 483.098 800.208 481.454 803.157L480.979 803.661L480.519 802.798C480.495 797.724 481.981 793.105 484.757 788.873Z"/>
	<path fill="#91221D" d="M475.205 746.862C476.629 749.081 476.973 752.48 477.534 755.034C475.211 756.227 473.417 757.384 471.432 759.1L470.984 759.642L470.482 759.203C470.482 755.164 472.989 750.158 475.205 746.862Z"/>
	<path fill="#91221D" d="M498.36 821.729C500.125 824.151 501.438 827.17 502.852 829.827C501.446 830.899 500.263 832.054 499.039 833.328C498.549 834.008 498.034 834.639 497.497 835.282L496.825 834.546C496.133 830.36 497.414 825.79 498.36 821.729Z"/>
	<path fill="#FEFEFE" d="M862.43 318.498L862.882 319.276C862.666 321.724 862.21 323.269 860.398 325.012C858.415 326.92 857.207 327.098 854.48 327.014C854.078 326.435 853.825 325.874 853.534 325.235C854.422 322.319 859.841 320.004 862.43 318.498Z"/>
	<path fill="#FEFEFE" d="M862.783 304.439C863.417 304.553 864.188 304.639 864.811 304.84C865.918 305.198 866.429 305.511 866.778 306.695C867.488 309.105 864.577 312.764 863.319 314.7C862.409 315.214 862.579 315.237 861.407 315.174C859.966 312.701 862.171 307.339 862.783 304.439Z"/>
	<path fill="#7A221E" d="M652.122 656.087C656.11 657.403 660.306 659.244 663.395 662.171C664.538 663.254 664.794 663.681 664.827 665.244C664.74 665.244 664.652 665.244 664.565 665.246C663.382 665.267 662.119 665.34 661.022 664.821C658.04 663.412 653.293 659.167 652.122 656.087Z"/>
	<path fill="#7A221E" d="M810.027 659.904C811.45 659.957 812.742 660.113 814.144 660.365C815.174 661.241 815.212 661.263 815.484 662.584C814.985 664.73 813.572 666.453 812.35 668.251C811.537 669.193 811.485 669.664 810.216 669.875C809.198 667.278 809.955 662.774 810.027 659.904Z"/>
	<path fill="#7A221E" d="M820.785 620.653C823.712 620.987 826.249 621.621 828.736 623.252C832.274 625.573 834.519 628.861 835.455 632.966C833.976 631.192 832.671 629.21 831.309 627.341C828.606 626.055 825.323 625.71 822.824 624.03C821.479 623.126 821.12 622.175 820.785 620.653Z"/>
	<path fill="#91221D" d="M798.863 745.314C798.96 745.391 799.059 745.465 799.153 745.545C803.159 748.975 803.287 753.302 803.657 758.2C802.043 756.746 800.212 755.551 798.436 754.304C798.469 751.291 798.637 748.318 798.863 745.314Z"/>
	<path fill="#91221D" d="M661.006 783.545L662.827 783.615L662.885 784.134C660.331 787.191 654.709 789.554 650.821 790.072C649.951 790.018 649.322 789.877 648.507 789.569C648.562 789.437 648.599 789.295 648.673 789.173C650.191 786.676 658.125 784.263 661.006 783.545Z"/>
	<path fill="#91221D" d="M761.516 738.69C766.541 740.76 769.78 743.347 772.762 747.883L766.548 747.689C765.061 744.586 763.261 741.652 761.516 738.69Z"/>
	<path fill="#91221D" d="M759.268 189.282C759.715 189.483 759.868 189.537 760.333 189.835C764.146 192.273 767.578 195.22 768.436 199.81C766.632 199.53 764.844 199.112 763.056 198.74C762.11 195.408 761.151 192.222 759.268 189.282Z"/>
	<path fill="#FEFEFE" d="M841.355 301.165L842.346 301.438C843.144 302.599 843.314 303.698 843.542 305.062C843.868 307.012 843.918 307.939 842.749 309.563L841.819 309.59L837.088 305.363C838.397 303.641 839.564 302.387 841.355 301.165Z"/>
	<path fill="#91221D" d="M584.774 915.648C585.374 915.853 585.972 916.061 586.556 916.309C590.433 917.96 591.682 922.626 593.122 926.218C592.888 926.11 592.643 926.025 592.421 925.895C588.672 923.711 586.196 919.612 584.774 915.648Z"/>
	<path fill="#7A221E" d="M720.349 745.371C721.865 745.695 723.336 746.074 724.783 746.633C726.828 747.423 731.223 749.031 732.091 751.013L726.854 751.917C724.771 749.61 722.653 747.457 720.349 745.371Z"/>
	<path fill="#91221D" d="M556.808 897.276C557.878 897.876 559.099 898.697 559.82 899.709C561.483 902.044 560.449 905.317 559.968 907.887L559.608 908.375L559.038 908.05C557.626 904.63 556.869 900.975 556.808 897.276Z"/>
	<path fill="#91221D" d="M827.157 767.882C828.315 769.348 828.113 772.403 828.034 774.229C827.973 775.646 827.865 776.932 826.773 777.898L825.635 777.171C825.124 776.651 824.33 775.991 823.978 775.365C823.086 773.774 825.759 772.272 826.459 771.025C826.845 770.337 826.974 768.709 827.157 767.882Z"/>
	<path fill="#91221D" d="M514.383 849.286C515.446 850.54 517.299 852.789 517.523 854.403C517.792 856.34 516.824 857.379 515.903 858.967L515.311 860.059L514.831 859.985C514.058 856.633 514.39 852.735 514.383 849.286Z"/>
	<path fill="#FEFEFE" d="M819.234 279.527C820.66 278.401 820.998 277.959 822.848 277.754C824.181 278.475 824.657 278.99 825.49 280.197C824.093 280.981 822.658 281.585 821.004 281.239C820.269 281.086 820.167 280.999 819.564 280.705C819.158 279.742 819.163 280.15 819.234 279.527Z"/>
	<path d="M104.566 394.247L110.052 396.438C94.4839 435.704 85.2919 477.206 82.8237 519.373C80.0803 563.577 84.4202 602.263 95.2137 645.069C112.121 714.299 145.944 778.251 193.65 831.192C289.146 938.252 431.732 990.654 573.829 970.913C596.414 967.754 618.737 962.939 640.616 956.508C649.384 953.917 660.486 948.42 668.918 947.181C674.917 946.3 681.889 948.402 687.988 948.776C686.096 949.22 684.241 949.778 682.378 950.329C665.157 957.268 647.834 962.775 629.846 967.364C535.008 992.51 434.524 985.665 343.972 947.891C327.758 941.036 311.828 933.569 296.682 924.569C283.653 916.826 270.538 908.83 258.306 899.883C174.779 838.802 114.835 750.819 88.5579 650.733C70.6078 580.078 69.9255 509.144 88.7747 438.547C92.4422 424.811 97.3633 406.383 104.566 394.247Z"/>
	<path d="M619.395 115.884C627.937 116.736 636.52 118.498 644.978 120.005C710.715 131.717 765.547 157.67 818.155 198.598C834.961 211.673 851.276 225.809 865.951 241.261C944.245 323.933 986.166 434.52 982.35 548.318C980.037 638.34 954.708 723.697 902.245 797.467C888.534 816.747 873.791 834.774 856.62 851.073C855.928 849.419 855.142 847.805 854.378 846.183L852.51 844.147C856.082 840.79 859.883 837.651 863.3 834.136C877.63 819.392 890.113 802.253 901.6 785.248C942.704 724.397 965.845 656.042 973.012 583.097C982.231 489.268 961.463 389.466 910.464 309.581C901.865 296.112 891.769 283.234 881.634 270.899C858.558 242.817 838.259 223.727 809.389 201.663C803.38 197.07 797.45 192.295 791.226 187.995C736.878 150.518 673.808 127.642 608.071 121.565C610.851 120.973 615.2 121.175 617.495 119.536C618.907 118.527 618.964 117.433 619.395 115.884Z"/>
</svg>
